<?xml version="1.0" encoding="UTF-8"?>
<svg version="1.1" xmlns="http://www.w3.org/2000/svg" width="90" height="90">
<path d="M0 0 C1.85202026 -0.00945648 1.85202026 -0.00945648 3.74145508 -0.019104 C5.09456525 -0.01552432 6.44767412 -0.01142238 7.80078125 -0.00683594 C9.18318754 -0.00818268 10.56559338 -0.01012329 11.94799805 -0.01263428 C14.84656276 -0.01558511 17.74500428 -0.0112893 20.64355469 -0.00195312 C24.36288762 0.00944152 28.08193193 0.00288181 31.80125427 -0.00909805 C34.65623152 -0.01631782 37.5111401 -0.01402822 40.36611938 -0.00884247 C41.73768142 -0.00750629 43.10924964 -0.0091526 44.48080444 -0.01380157 C46.39605595 -0.01886842 48.31132926 -0.00977925 50.2265625 0 C51.31751221 0.00159119 52.40846191 0.00318237 53.5324707 0.00482178 C56.11328125 0.25878906 56.11328125 0.25878906 58.11328125 2.25878906 C58.36724854 4.83959961 58.36724854 4.83959961 58.37207031 8.14550781 C58.37837463 9.38018799 58.38467896 10.61486816 58.39117432 11.88696289 C58.38759463 13.24007306 58.3834927 14.59318193 58.37890625 15.94628906 C58.380253 17.32869536 58.38219361 18.71110119 58.38470459 20.09350586 C58.38765543 22.99207057 58.38335961 25.8905121 58.37402344 28.7890625 C58.3626288 32.50839543 58.3691885 36.22743975 58.38116837 39.94676208 C58.38838813 42.80173933 58.38609853 45.65664791 58.38091278 48.5116272 C58.3795766 49.88318923 58.38122291 51.25475745 58.38587189 52.62631226 C58.39093873 54.54156376 58.38184956 56.45683707 58.37207031 58.37207031 C58.37047913 59.46302002 58.36888794 60.55396973 58.36724854 61.67797852 C58.11328125 64.25878906 58.11328125 64.25878906 56.11328125 66.25878906 C53.5324707 66.51275635 53.5324707 66.51275635 50.2265625 66.51757812 C48.99188232 66.52388245 47.75720215 66.53018677 46.48510742 66.53668213 C45.13199725 66.53310245 43.77888838 66.52900051 42.42578125 66.52441406 C41.04337496 66.52576081 39.66096912 66.52770142 38.27856445 66.5302124 C35.37999974 66.53316324 32.48155822 66.52886742 29.58300781 66.51953125 C25.86367488 66.50813661 22.14463057 66.51469631 18.42530823 66.52667618 C15.57033098 66.53389594 12.7154224 66.53160634 9.86044312 66.52642059 C8.48888108 66.52508441 7.11731286 66.52673072 5.74575806 66.5313797 C3.83050655 66.53644654 1.91523324 66.52735737 0 66.51757812 C-1.09094971 66.51598694 -2.18189941 66.51439575 -3.3059082 66.51275635 C-5.88671875 66.25878906 -5.88671875 66.25878906 -7.88671875 64.25878906 C-8.14068604 61.67797852 -8.14068604 61.67797852 -8.14550781 58.37207031 C-8.15181213 57.13739014 -8.15811646 55.90270996 -8.16461182 54.63061523 C-8.16103213 53.27750507 -8.1569302 51.92439619 -8.15234375 50.57128906 C-8.1536905 49.18888277 -8.15563111 47.80647694 -8.15814209 46.42407227 C-8.16109293 43.52550756 -8.15679711 40.62706603 -8.14746094 37.72851562 C-8.1360663 34.00918269 -8.142626 30.29013838 -8.15460587 26.57081604 C-8.16182563 23.7158388 -8.15953603 20.86093022 -8.15435028 18.00595093 C-8.1530141 16.6343889 -8.15466041 15.26282067 -8.15930939 13.89126587 C-8.16437623 11.97601436 -8.15528706 10.06074106 -8.14550781 8.14550781 C-8.14391663 7.05455811 -8.14232544 5.9636084 -8.14068604 4.83959961 C-7.62219689 -0.42927686 -4.50598346 0.00657213 0 0 Z M5.11328125 31.25878906 C5.11328125 32.57878906 5.11328125 33.89878906 5.11328125 35.25878906 C8.2678179 36.83605739 11.65068927 36.40069412 15.11328125 36.39160156 C15.90476562 36.39255829 16.69625 36.39351501 17.51171875 36.39450073 C19.18619872 36.39518165 20.86068134 36.3933335 22.53515625 36.38916016 C25.10292471 36.38381064 27.67051825 36.3891081 30.23828125 36.39550781 C31.86328164 36.39484702 33.48828192 36.39356582 35.11328125 36.39160156 C36.26957031 36.39463791 36.26957031 36.39463791 37.44921875 36.3977356 C41.41042774 36.46424131 41.41042774 36.46424131 45.11328125 35.25878906 C45.11328125 33.93878906 45.11328125 32.61878906 45.11328125 31.25878906 C41.9587446 29.68152074 38.57587323 30.116884 35.11328125 30.12597656 C34.32179688 30.12501984 33.5303125 30.12406311 32.71484375 30.12307739 C31.04036378 30.12239647 29.36588116 30.12424462 27.69140625 30.12841797 C25.12363779 30.13376749 22.55604425 30.12847003 19.98828125 30.12207031 C18.36328086 30.12273111 16.73828058 30.1240123 15.11328125 30.12597656 C13.95699219 30.12294022 13.95699219 30.12294022 12.77734375 30.11984253 C8.81613476 30.05333681 8.81613476 30.05333681 5.11328125 31.25878906 Z " fill="#7239B3" transform="translate(19.88671875,11.7412109375)"/>
</svg>
