<?xml version="1.0" encoding="UTF-8" standalone="no"?>
<svg
   xmlns:dc="http://purl.org/dc/elements/1.1/"
   xmlns:cc="http://creativecommons.org/ns#"
   xmlns:rdf="http://www.w3.org/1999/02/22-rdf-syntax-ns#"
   xmlns:svg="http://www.w3.org/2000/svg"
   xmlns="http://www.w3.org/2000/svg"
   version="1.1"
   id="svg2"
   viewBox="0 0 255.99998 255.99998"
   height="255.99998"
   width="255.99998">
  <defs
     id="defs4" />
  <metadata
     id="metadata7">
    <rdf:RDF>
      <cc:Work
         rdf:about="">
        <dc:format>image/svg+xml</dc:format>
        <dc:type
           rdf:resource="http://purl.org/dc/dcmitype/StillImage" />
        <dc:title></dc:title>
      </cc:Work>
    </rdf:RDF>
  </metadata>
  <g
     transform="translate(-340.04724,-302.1811)"
     id="layer1">
    <rect
       ry="0"
       rx="0"
       y="302.18109"
       x="340.04724"
       height="256"
       width="256"
       id="rect3347"
       style="color:#fbc02d;clip-rule:nonzero;display:inline;overflow:visible;visibility:visible;opacity:1;isolation:auto;mix-blend-mode:normal;color-interpolation:sRGB;color-interpolation-filters:linearRGB;solid-color:#000000;solid-opacity:1;fill:#403757;fill-opacity:1;fill-rule:nonzero;stroke:none;stroke-width:1;stroke-linecap:butt;stroke-linejoin:miter;stroke-miterlimit:4;stroke-dasharray:none;stroke-dashoffset:0;stroke-opacity:1;marker:none;color-rendering:auto;image-rendering:auto;shape-rendering:auto;text-rendering:auto;enable-background:accumulate" />
    <path
       id="text3368"
       transform="translate(340.04724,302.1811)"
       d="m 122.71289,54.597656 c -16.60156,0 -32.486979,5.338542 -47.656249,16.015625 -6.640625,4.817709 -12.076823,10.351563 -16.308594,16.601563 -4.166667,6.184896 -6.25,12.630208 -6.25,19.335936 0,3.64583 0.455729,6.70573 1.367187,9.17969 2.669271,6.83594 9.342448,10.25391 20.019532,10.25391 0,-0.39063 -0.162761,-0.84636 -0.488282,-1.36719 -1.497395,-2.73438 -2.246093,-6.80339 -2.246093,-12.20703 0,-11.13282 2.604166,-20.442712 7.8125,-27.929691 5.273437,-7.486979 12.597656,-12.988281 21.972659,-16.503907 l 3.22265,136.621098 28.8086,0 55.5664,-149.023441 -13.96484,0 L 132.47852,178.03516 130.7207,54.988281 c -2.60416,-0.260416 -5.27343,-0.390625 -8.00781,-0.390625 z"
       style="font-style:normal;font-variant:normal;font-weight:normal;font-stretch:normal;font-size:200px;line-height:125%;font-family:'Lobster 1.4';-inkscape-font-specification:'Lobster 1.4, ';letter-spacing:0px;word-spacing:0px;fill:#ffffff;fill-opacity:1;stroke:none;stroke-width:1px;stroke-linecap:butt;stroke-linejoin:miter;stroke-opacity:1" />
  </g>
</svg>
