<svg xmlns="http://www.w3.org/2000/svg"  viewBox="0 0 32 32" width="32px" height="32px" baseProfile="basic"><linearGradient id="lQZZOoyhzclkgqEvRJgJga" x1="22.49" x2="24.823" y1="24.809" y2="22.476" gradientUnits="userSpaceOnUse"><stop offset="0" stop-color="#b5b6bf"/><stop offset=".503" stop-color="#e3e3e3"/><stop offset="1" stop-color="#b5b6bf"/></linearGradient><path fill="url(#lQZZOoyhzclkgqEvRJgJga)" d="M18.938,21.204l6.688,6.688c0.626,0.626,2.891-1.64,2.265-2.265l-6.688-6.688L18.938,21.204z"/><linearGradient id="lQZZOoyhzclkgqEvRJgJgb" x1="20.071" x2="27.228" y1="20.071" y2="27.228" gradientUnits="userSpaceOnUse"><stop offset="0" stop-opacity=".02"/><stop offset="1" stop-opacity=".15"/></linearGradient><path fill="url(#lQZZOoyhzclkgqEvRJgJgb)" d="M21.204,19.292l6.511,6.511 c0.055,0.055,0.044,0.195-0.03,0.373c-0.28,0.677-1.291,1.574-1.773,1.574c-0.075,0-0.1-0.025-0.11-0.035l-6.511-6.511 L21.204,19.292 M21.204,18.938l-2.265,2.265l6.688,6.688C25.701,27.967,25.799,28,25.913,28c0.839,0,2.53-1.823,1.979-2.374 L21.204,18.938L21.204,18.938z"/><linearGradient id="lQZZOoyhzclkgqEvRJgJgc" x1="14" x2="14" y1="3.913" y2="24.009" gradientUnits="userSpaceOnUse"><stop offset="0" stop-color="#e1e2ed"/><stop offset="1" stop-color="#c6c7d1"/></linearGradient><circle cx="14" cy="14" r="10" fill="url(#lQZZOoyhzclkgqEvRJgJgc)"/><linearGradient id="lQZZOoyhzclkgqEvRJgJgd" x1="14" x2="14" y1="4" y2="24" gradientUnits="userSpaceOnUse"><stop offset="0" stop-opacity=".02"/><stop offset="1" stop-opacity=".15"/></linearGradient><path fill="url(#lQZZOoyhzclkgqEvRJgJgd)" d="M14,4.25c5.376,0,9.75,4.374,9.75,9.75 s-4.374,9.75-9.75,9.75S4.25,19.376,4.25,14S8.624,4.25,14,4.25 M14,4C8.477,4,4,8.477,4,14s4.477,10,10,10s10-4.477,10-10 S19.523,4,14,4L14,4z"/><linearGradient id="lQZZOoyhzclkgqEvRJgJge" x1="19.21" x2="8.958" y1="19.21" y2="8.958" gradientUnits="userSpaceOnUse"><stop offset="0" stop-color="#d9f5ff"/><stop offset="1" stop-color="#bfe8ff"/></linearGradient><circle cx="14" cy="14" r="8" fill="url(#lQZZOoyhzclkgqEvRJgJge)"/><linearGradient id="lQZZOoyhzclkgqEvRJgJgf" x1="14" x2="14" y1="22" y2="6" gradientUnits="userSpaceOnUse"><stop offset="0" stop-opacity=".15"/><stop offset="1" stop-opacity=".15"/></linearGradient><path fill="url(#lQZZOoyhzclkgqEvRJgJgf)" d="M14,6.25c4.273,0,7.75,3.477,7.75,7.75	s-3.477,7.75-7.75,7.75S6.25,18.273,6.25,14S9.727,6.25,14,6.25 M14,6c-4.418,0-8,3.582-8,8s3.582,8,8,8s8-3.582,8-8S18.418,6,14,6	L14,6z"/></svg>