<?xml version="1.0" encoding="UTF-8" standalone="no"?>
<svg
   xmlns:dc="http://purl.org/dc/elements/1.1/"
   xmlns:cc="http://creativecommons.org/ns#"
   xmlns:rdf="http://www.w3.org/1999/02/22-rdf-syntax-ns#"
   xmlns:svg="http://www.w3.org/2000/svg"
   xmlns="http://www.w3.org/2000/svg"
   version="1.1"
   id="svg2"
   height="16"
   width="16.036">
  <metadata
     id="metadata12">
    <rdf:RDF>
      <cc:Work
         rdf:about="">
        <dc:format>image/svg+xml</dc:format>
        <dc:type
           rdf:resource="http://purl.org/dc/dcmitype/StillImage" />
        <dc:title>elementary Symbolic Icon Theme</dc:title>
      </cc:Work>
    </rdf:RDF>
  </metadata>
  <defs
     id="defs10" />
  <title
     id="title4">elementary Symbolic Icon Theme</title>
  <path
     id="path6"
     fill-rule="evenodd"
     fill="#403757"
     overflow="visible"
     white-space="normal"
     font-family="sans-serif"
     font-weight="400"
     color="#000"
     style="line-height:normal;text-indent:0;text-align:start;text-decoration-line:none;text-decoration-style:solid;text-decoration-color:#000;text-transform:none;block-progression:tb;isolation:auto;mix-blend-mode:normal"
     d="M5 1s-.46-.014-.947.23C3.563 1.475 3 2.167 3 3v4H1v2h2v4c0 .833.564 1.525 1.053 1.77.488.244.947.23.947.23h2v-2H5V3h2V1H5zm4.014 0v2h2v10h-2v2h2s.458.014.947-.23c.49-.245 1.055-.937 1.055-1.77V9h2V7h-2V3c0-.833-.565-1.525-1.053-1.77-.488-.244-.946-.23-.946-.23h-2z" />
</svg>
