<?xml version="1.0" encoding="UTF-8"?>
<svg version="1.1" xmlns="http://www.w3.org/2000/svg" width="527" height="168">
<path d="M0 0 C173.91 0 347.82 0 527 0 C527 55.44 527 110.88 527 168 C353.09 168 179.18 168 0 168 C0 112.56 0 57.12 0 0 Z " fill="#A46DE0" transform="translate(0,0)"/>
<path d="M0 0 C-2.27598721 12.55678799 -4.76284558 25.05304412 -7.5234375 37.51171875 C-7.74615326 38.51992676 -7.96886902 39.52813477 -8.19833374 40.56689453 C-9.32318003 45.65236708 -10.45870944 50.73513934 -11.60888672 55.81494141 C-13.78810366 65.55768263 -15.74876892 74.98275325 -16 85 C-9.28879267 85.6349422 -9.28879267 85.6349422 -3.5 82.625 C-0.2508598 79.2134028 0.10788334 77.45835631 0.54370117 72.84619141 C2.0248767 57.79604573 6.68861424 44.48132665 18.0625 34.0625 C24.5631634 28.72894412 30.59947011 26.67797693 39 26.7734375 C42.10228835 27.1248686 44.3923797 28.34638713 47 30 C47.33 30.66 47.66 31.32 48 32 C48.66 30.68 49.32 29.36 50 28 C56.6 28 63.2 28 70 28 C68.95579805 34.70820645 67.75241964 41.34306704 66.2734375 47.96875 C66.11989807 48.66218506 65.96635864 49.35562012 65.8081665 50.07006836 C65.17310875 52.93336869 64.53642018 55.79609956 63.88085938 58.65478516 C61.88323897 67.3993486 60.08785982 75.96507652 61 85 C62.09198142 86.29956335 62.09198142 86.29956335 64.75 86.3125 C68.75871982 85.92704617 70.18176546 84.81823454 73 82 C75.09336224 78.68428987 75.25035534 75.94086647 75.375 72.0625 C76.34508422 57.37969979 81.92656224 44.01313419 92.6953125 33.87890625 C99.48379724 28.3445653 106.28690197 26.53322689 115 27 C118.56998388 28.05476797 120.46741655 29.34369839 123 32 C125.3579659 22.00557599 127.7023954 12.00850488 130 2 C132.37438249 1.6616656 134.74934959 1.32920998 137.125 1 C137.79015625 0.90460937 138.4553125 0.80921875 139.140625 0.7109375 C143.13274113 0.16299999 146.97599395 -0.03989101 151 0 C143.6171875 35.06835937 143.6171875 35.06835937 142.81188965 38.89157104 C142.28227456 41.40854177 141.75370513 43.92573276 141.22619629 46.44314575 C140.08046583 51.90567914 138.9264943 57.36520462 137.71679688 62.81396484 C137.52728455 63.67805466 137.33777222 64.54214447 137.14251709 65.43241882 C136.80332076 66.97401469 136.45786075 68.51425561 136.10406494 70.05256653 C135.06011782 74.8295865 134.77701569 79.14141229 135 84 C136.82494235 85.82494235 139.35400841 85.40198167 141.796875 85.62109375 C145.35859305 84.61699239 147.22320711 82.09079124 149 79 C149.84419686 75.37824876 149.84419686 75.37824876 150 71.5 C151.28075183 57.47016717 156.44254334 43.93068457 166.8125 34.0625 C175.06906413 27.48255617 183.58567138 25.87224516 194 27 C198.17893796 28.34323006 201.20472308 30.42725546 203.96484375 33.90625 C206.25578037 38.5399935 206.49442417 43.91405805 207 49 C211.64679086 48.888639 214.99120998 48.77951956 218.75 45.875 C219.91012787 44.39261439 221.06490474 42.90055666 222.09375 41.32421875 C225.54794746 36.06123546 229.56339279 33.12557558 235 30 C236.60875 29.071875 236.60875 29.071875 238.25 28.125 C244.85554934 26.1433352 252.55754947 25.74217268 259.125 28.1875 C262.43027376 30.27125954 263.64532774 31.33441625 265 35 C265.55619593 39.30855998 265.3917506 42.89388065 263.9375 47 C261.17643207 49.85013463 258.87748565 49.85900052 255 50 C254.34 49.67 253.68 49.34 253 49 C253.08378906 48.15695313 253.16757812 47.31390625 253.25390625 46.4453125 C253.35574219 45.34960938 253.45757812 44.25390625 253.5625 43.125 C253.66691406 42.03445312 253.77132813 40.94390625 253.87890625 39.8203125 C254.22639404 37.04847977 254.22639404 37.04847977 253 35 C250.75775342 34.41036322 250.75775342 34.41036322 248 35 C238.73971845 42.74453214 234.85444555 56.56725317 233 68 C232.86191188 69.99696673 232.78063522 71.99849908 232.75 74 C232.72421875 75.010625 232.6984375 76.02125 232.671875 77.0625 C233.05198092 80.46535302 233.92005004 82.29751282 236 85 C243.13143497 87.23731293 248.16374917 84.36747808 254.5 81.3125 C255.325 80.879375 256.15 80.44625 257 80 C256.57787008 85.62839899 254.70300874 89.80612731 251 94 C245.4472118 98.5184453 239.68919951 99.43631571 232.75 99.5 C232.07670654 99.50644531 231.40341309 99.51289063 230.7097168 99.51953125 C224.69512118 99.36491057 220.74913021 97.51061246 216.25 93.625 C211.50883374 88.09363936 211.66288719 82.79761627 211.6875 75.8125 C211.67138672 74.91724609 211.65527344 74.02199219 211.63867188 73.09960938 C211.63398789 66.61228895 212.82204287 61.10042248 215 55 C211.04 55.99 211.04 55.99 207 57 C206.78085937 58.08796875 206.56171875 59.1759375 206.3359375 60.296875 C203.76261004 72.45324618 200.44479216 86.25699826 189.5703125 93.65234375 C181.09307092 98.87383313 173.52224228 100.51879931 163.54296875 98.50390625 C159.01295204 96.97080308 155.97790002 94.69981518 153 91 C152.1875 88.6875 152.1875 88.6875 152 87 C151.38125 87.70125 150.7625 88.4025 150.125 89.125 C144.05185706 95.19814294 137.09137397 98.52857648 128.625 99.3125 C124.25304983 98.93560774 121.28516985 97.94561741 118 95 C116.59517364 92.68178831 115.8512661 90.60387279 115 88 C114.319375 88.721875 113.63875 89.44375 112.9375 90.1875 C107.11318773 96.01181227 102.06177307 99.12898075 93.6875 99.3125 C88.23854115 99.25202321 85.04102003 98.93999453 81 95 C79.18156539 92.7293878 77.59648875 90.44168868 76 88 C75.360625 88.886875 74.72125 89.77375 74.0625 90.6875 C69.74096705 95.74129271 65.13658537 98.59965892 58.48046875 99.44921875 C49.15500037 99.73240051 49.15500037 99.73240051 45.16015625 97.19921875 C42.38587691 94.37477161 41.80866653 91.82278723 41 88 C40.34644531 88.58007812 40.34644531 88.58007812 39.6796875 89.171875 C31.61200438 96.2267321 26.0318934 99.39410437 15.171875 99.2734375 C11.0066762 98.91436864 8.95792341 97.95792341 6 95 C4.45092721 92.71792746 3.23953693 90.47907386 2 88 C1.01 88 0.02 88 -1 88 C-1.20625 88.556875 -1.4125 89.11375 -1.625 89.6875 C-4.81683594 95.05558772 -9.14243144 97.40896737 -15 99 C-18.25390625 99.30078125 -18.25390625 99.30078125 -21.5625 99.3125 C-22.65691406 99.32925781 -23.75132812 99.34601563 -24.87890625 99.36328125 C-28.37519301 98.95632922 -30.20779112 98.11142297 -33 96 C-36 90.93103448 -36 90.93103448 -36 88 C-36.680625 88.721875 -37.36125 89.44375 -38.0625 90.1875 C-43.88681227 96.01181227 -48.93822693 99.12898075 -57.3125 99.3125 C-64.60587448 99.23128202 -64.60587448 99.23128202 -67.6875 97.4375 C-70.51630896 94.45578245 -71.23129658 91.99725776 -72 88 C-72.4125 88.37511719 -72.825 88.75023438 -73.25 89.13671875 C-75.13150941 90.80403847 -77.05566345 92.40646505 -79 94 C-79.86818359 94.74830078 -79.86818359 94.74830078 -80.75390625 95.51171875 C-86.89255545 100.13890789 -93.58692667 99.95362351 -101 99 C-106.51113349 96.62451143 -108.48156658 93.22341747 -111 88 C-115.10943041 75.56284968 -111.28299915 60.04628468 -105.8125 48.75 C-100.86041238 39.41682018 -95.01081143 32.02589185 -85 28 C-79.24741566 26.61083103 -74.13351853 26.13078875 -68.625 28.375 C-66 30 -66 30 -64 32 C-63.67 30.68 -63.34 29.36 -63 28 C-56.4 28 -49.8 28 -43 28 C-43.68172665 34.13553984 -44.50569122 39.89709426 -45.84765625 45.875 C-46.20924787 47.53640101 -46.57056779 49.19786117 -46.93164062 50.859375 C-47.49644651 53.43377053 -48.06415874 56.00744989 -48.63696289 58.58007812 C-49.19458429 61.09332831 -49.74052169 63.60890824 -50.28515625 66.125 C-50.45700943 66.88151855 -50.62886261 67.63803711 -50.80592346 68.41748047 C-52.77947027 77.34315615 -52.77947027 77.34315615 -51 86 C-46.85694831 86.40618154 -44.70960572 86.49994948 -41.25 84.0625 C-36.80692801 78.01498535 -35.4934318 70.38165402 -33.94921875 63.13671875 C-33.76996857 62.31420624 -33.59071838 61.49169373 -33.40603638 60.64425659 C-33.02534729 58.89425477 -32.64685184 57.14377449 -32.27041626 55.39285278 C-31.68087677 52.65676117 -31.08205332 49.92283683 -30.48120117 47.18920898 C-28.65667199 38.85888906 -26.88202687 30.52631175 -25.2890625 22.1484375 C-25.03355908 20.83883135 -24.77747779 19.52933777 -24.52075195 18.2199707 C-24.05887637 15.83480763 -23.61882631 13.44528324 -23.20385742 11.05151367 C-22.6502676 8.22705361 -22.11842023 5.65134069 -21 3 C-18.0703125 1.31640625 -18.0703125 1.31640625 -15 1 C-13.700625 0.79375 -12.40125 0.5875 -11.0625 0.375 C-7.37528202 -0.07905232 -3.71129323 -0.02679634 0 0 Z " fill="#FDFDFE" transform="translate(228,36)"/>
<path d="M0 0 C1.9039856 0.0165564 1.9039856 0.0165564 3.84643555 0.03344727 C5.50026245 0.04782837 5.50026245 0.04782837 7.1875 0.0625 C8.14331896 17.62845873 8.47682525 35.19076929 8.71972656 52.77752686 C8.77095271 56.4324506 8.82609786 60.08731532 8.88085938 63.7421875 C8.98678977 70.84890678 9.08856458 77.9556796 9.1875 85.0625 C9.44144531 84.2890625 9.69539063 83.515625 9.95703125 82.71875 C13.1119194 73.17137312 13.1119194 73.17137312 14.63647461 69.20239258 C16.69930098 63.80111416 18.49584714 58.30746475 20.33267403 52.82620811 C21.0164329 50.7868573 21.70245177 48.7482797 22.3891449 46.70991516 C24.33930533 40.92064426 26.28748471 35.13071641 28.22924805 29.33862305 C29.42195289 25.78143372 30.61894762 22.22571305 31.81873894 18.67090797 C32.27367155 17.3202612 32.72697969 15.96906611 33.17862129 14.61731529 C33.80846264 12.73269192 34.44425721 10.85006127 35.08032227 8.9675293 C35.43989517 7.89689743 35.79946808 6.82626556 36.16993713 5.72319031 C37.1875 3.0625 37.1875 3.0625 39.1875 0.0625 C42.19548865 -0.34471868 45.16071367 -0.06721941 48.1875 0.0625 C45.8497993 8.43582574 42.86687705 16.54449652 39.8125 24.67578125 C39.28237206 26.09407448 38.75251157 27.5124677 38.22290039 28.93095398 C36.82937441 32.66086903 35.43188518 36.38928722 34.03363037 40.11743164 C32.92484828 43.0757835 31.81892062 46.03519804 30.71315002 48.99467659 C23.59695541 68.03975571 16.41594801 87.05975761 9.1875 106.0625 C2.2575 106.0625 -4.6725 106.0625 -11.8125 106.0625 C-12.44334255 73.72678605 -13.00547547 41.40518875 -12.8125 9.0625 C-22.50912604 13.12073323 -28.59927499 18.27986167 -32.8125 28.0625 C-34.12473545 31.85890445 -33.9452929 35.63893207 -33.9375 39.625 C-33.94136719 40.29724609 -33.94523437 40.96949219 -33.94921875 41.66210938 C-33.94311073 44.73749752 -33.79241229 47.12276313 -32.8125 50.0625 C-39.29636998 49.72712741 -42.25025469 48.73601958 -46.8125 44.0625 C-48.90078618 37.79764147 -48.56809571 31.91555877 -45.75 25.9375 C-38.39020565 12.83747607 -26.79296103 5.90959394 -12.8125 1.0625 C-8.55372025 -0.07082817 -4.375701 -0.0540092 0 0 Z " fill="#FDFDFD" transform="translate(78.8125,28.9375)"/>
<path d="M0 0 C3.84016918 5.76025377 0.97452361 13.40905461 -0.26953125 19.890625 C-0.77800612 22.34496883 -1.29243607 24.79808568 -1.8125 27.25 C-2.06064453 28.49007812 -2.30878906 29.73015625 -2.56445312 31.0078125 C-4.12282573 38.38331645 -5.53347726 43.41394199 -10.8125 48.875 C-14.01000757 50.51943246 -16.46597509 50.38552999 -20 50 C-22.85352121 48.09765252 -23.33140251 46.25577907 -24 43 C-25.45012452 29.40211104 -21.2956597 14.83092368 -13 4 C-8.40900942 -0.29221183 -6.08772251 -0.69859111 0 0 Z " fill="#A36EDC" transform="translate(273,72)"/>
<path d="M0 0 C2 2 2 2 2.3203125 5.6484375 C2.1686729 12.07127429 0.7438405 18.29473665 -0.66113281 24.5390625 C-1.12465724 26.62345866 -1.55486914 28.71305281 -1.984375 30.8046875 C-3.60888518 38.32435516 -5.18202943 43.74963631 -11 49 C-14.0832635 50.54163175 -16.60878099 50.29747535 -20 50 C-22.05514401 48.23371263 -22.88080809 46.76640107 -23.2980957 44.08325195 C-23.44351903 41.71324471 -23.4664664 39.37431783 -23.4375 37 C-23.43065186 36.15002441 -23.42380371 35.30004883 -23.41674805 34.42431641 C-23.23855632 27.39141593 -21.97384959 21.41418538 -19 15 C-18.62617188 14.16984375 -18.25234375 13.3396875 -17.8671875 12.484375 C-14.05925347 4.86850695 -9.24514889 -1.45021943 0 0 Z " fill="#A26EDC" transform="translate(160,72)"/>
<path d="M0 0 C1.093125 0.268125 2.18625 0.53625 3.3125 0.8125 C4.71185013 3.61120027 4.56515405 5.71748792 4.3125 8.8125 C3.81621094 9.27398437 3.31992187 9.73546875 2.80859375 10.2109375 C1.09995176 11.7280158 1.09995176 11.7280158 1.01953125 14.07421875 C1.07173828 15.27498047 1.07173828 15.27498047 1.125 16.5 C1.15207031 17.30824219 1.17914063 18.11648437 1.20703125 18.94921875 C1.25923828 19.87154297 1.25923828 19.87154297 1.3125 20.8125 C2.3025 21.1425 3.2925 21.4725 4.3125 21.8125 C2.96344075 32.04118804 0.30172912 41.95973678 -6.6875 49.8125 C-10.17874017 52.13999345 -11.57972251 52.31549316 -15.6875 51.8125 C-17.83984375 50.296875 -17.83984375 50.296875 -19.6875 47.8125 C-20.1563594 44.93236369 -20.35367783 42.56595301 -20.3125 39.6875 C-20.30557129 38.89996338 -20.29864258 38.11242676 -20.29150391 37.30102539 C-19.86597918 25.45098458 -15.84237501 11.71454942 -7.6875 2.8125 C-4.69834019 0.1528067 -4.18174239 -0.21263097 0 0 Z " fill="#A26EDB" transform="translate(418.6875,71.1875)"/>
<path d="M0 0 C1.71557617 1.29345703 1.71557617 1.29345703 3 3 C2.71930933 10.81122026 0.80055562 18.49600741 -0.8125 26.125 C-1.06064453 27.36121094 -1.30878906 28.59742188 -1.56445312 29.87109375 C-4.59313218 44.2207131 -4.59313218 44.2207131 -10.375 48.9375 C-13.58858957 50.23823864 -15.56850583 50.58408411 -19 50 C-21.55689162 47.43847633 -22.86818714 45.7545508 -23.49609375 42.16015625 C-23.22503493 27.83017996 -20.65040477 14.52911176 -11.45703125 3.078125 C-7.91338943 -0.30401036 -4.72234971 -0.7128075 0 0 Z " fill="#A26DDC" transform="translate(347,72)"/>
<path d="M0 0 C0.66 0.33 1.32 0.66 2 1 C-0.97 3.97 -3.94 6.94 -7 10 C-7 6.04435836 -5.59478606 4.89133304 -3 2 C-2.01 1.34 -1.02 0.68 0 0 Z " fill="#9873C3" transform="translate(340,72)"/>
<path d="M0 0 C0.66 0.33 1.32 0.66 2 1 C-0.64 3.64 -3.28 6.28 -6 9 C-6 6 -6 6 -3.5625 3.375 C-2.716875 2.59125 -1.87125 1.8075 -1 1 C-0.67 0.67 -0.34 0.34 0 0 Z " fill="#A079CC" transform="translate(265,72)"/>
</svg>
